# xmcd
#
# Track frame offsets: 
#        150
#        22379
#        59808
#
# Disc length: 1080 seconds
#
# Revision: 0
# Processed by: cddbd v1.5.2PL0 Copyright (c) Steve Scherf et al.
# Submitted via: ExactAudioCopy v1.0b3
#
DISCID=2c043603
DTITLE=Various Artist - Sleeping Owl and Löd and Io Apreo - Laugh All Ove
DTITLE=r the Zhiguli (3 Way Split)
DYEAR=2011
DGENRE=Sludge Doom
TTITLE0=Sleeping Owl - Untitled
TTITLE1=Löd - Лес
TTITLE2=Io Apreo - Episode 2
EXTD=
EXTT0=
EXTT1=
EXTT2=
PLAYORDER=
